<?xml version="1.0" encoding="utf-8"?>
<!-- Generator: Adobe Illustrator 23.0.1, SVG Export Plug-In . SVG Version: 6.00 Build 0)  -->
<svg version="1.1" id="Layer_1" xmlns="http://www.w3.org/2000/svg" xmlns:xlink="http://www.w3.org/1999/xlink" x="0px" y="0px"
	 viewBox="0 0 1605 188.5" style="enable-background:new 0 0 1605 188.5;" xml:space="preserve">
<style type="text/css">
	.st0{fill-rule:evenodd;clip-rule:evenodd;}
	.st1{fill:#707070;}
</style>
<g>
	<path id="Fill-1" class="st0" d="M270.1,143.7c-19.9,0-34.9-2.9-51.4-9.2c-9.8-4.2-11-14.3-5.5-18.9c4.9-4.3,16.8-6.9,26-3.4
		c13,5,18.2,10.8,28,10.8c9,0,14.6-1.7,14.6-5.8c0-5.6-4.5-8.6-25.8-12.5c-24.4-4.2-41.7-16.3-41.7-32.1c0-18.5,28.6-28.6,55.6-28.6
		c8.9,0.1,17.9,1.1,26.6,2.9c5.5,1.1,9.2,4.9,9.2,9.2V65c0,4.9-9.4,10.8-17.6,5.5c-3.9-2.6-11.9-5.2-16.3-5.2
		c-10.4,0-17.3,2.1-17.3,7.6c0,6.1,8.2,8.8,29.3,13c25,6.1,39.8,13.4,39.8,30.7C323.6,135.1,292.8,143.7,270.1,143.7"/>
	<path id="Fill-2" class="st0" d="M443.1,141.5h-23.9c-9.6,0-14.2-1.2-14.2-10.5c0-6.5,1.2-6.3,5.1-8.4c3.3-1.8,5.1-3.7,5.1-6.7
		V74.3c0-5.6-8-9.9-18-9.9c-9.8,0-17.6,4.4-17.6,9.9v58.9c0,5.3-4.9,8.3-13.7,8.3h-14.1c-7.8,0-13.5-3-13.5-8.4V64.9
		c0-8.9,11.8-11.3,21.7-9.6l4.8,1.1c4.4,0.8,6.5,0.2,7.7-1.2c7.1-7.5,21.1-11.1,37.4-11.1c30.4,0,46.1,17.7,46.1,34.8v54.3
		C456.2,138.5,451.8,141.5,443.1,141.5"/>
	<g>
		<path id="Fill-3" class="st0" d="M559.1,78.4c0-8.3-10.5-14.7-22.6-14.7c-12.7,0-23.2,6.4-23.2,14.7v32.7
			c0,8.2,10.7,14.7,23.2,14.7c12.3,0,22.6-6.4,22.6-14.7V78.4z M536.5,144.9c-35.5,0-63.9-18.6-63.9-41.1V84.6
			c0-23.4,28.3-41,63.9-41c34.1,0,63.5,17.6,63.5,41v19.2C599.9,126.4,571.4,144.9,536.5,144.9L536.5,144.9z"/>
	</g>
	<g>
		<path id="Fill-5" class="st0" d="M750.5,136.4c-1.6,4.2-5.5,5.3-11.4,5.3h-10.8c-4.4,0-9.7-1.9-11.5-5.3l-21.8-42.2
			c-1.7-2.9-2.8-2.8-4.3,0l-23.6,42.4c-2.3,4.2-5.4,5-11.3,5H645c-4,0-10.5-1.9-11.6-5.6l-29.1-80.4c-2.3-6.6,5-8.8,14.1-8.8h12
			c8.2,0,14.1,1,15.8,7.7l9.8,36.7c0.6,2.4,3.3,2.8,4.6,0.3l13.1-30.4c2-3.9,4.9-5.9,10-6.4l12-1.2c9.2-1.5,13.2,2.3,15.1,6.8
			l16,32.2c0.8,2,2.9,1.8,3.8-0.1l7.4-21.1c1.2-2.6,0.6-3.7-2.8-5.6c-3.9-2.1-5-2-5-8.5c0-9.2,4.8-10.4,14.2-10.4h25.3
			c6.7,0,15.6,2.3,12.3,10.4L750.5,136.4"/>
	</g>
	<g>
		<path id="Fill-6" class="st0" d="M158.5,94.3l-12.6-21.7L174.7,56l-10.3-17.8l-29,16.6l-12.6-21.7H97.6V0H77.1v33.1H51.8
			L39.2,54.8L10.3,38.2L0,56l28.8,16.6L16.3,94.3l12.5,21.7L0,132.5l10.3,17.8l28.9-16.6l12.6,21.7h25.3v33.1h20.5v-33.1h25.2
			l12.6-21.7l29,16.6l10.3-17.8L145.9,116L158.5,94.3L158.5,94.3z M130.3,94.3l-23.6,36.5H68L44.3,94.3L68,57.7h38.8L130.3,94.3
			L130.3,94.3z"/>
	</g>
	<path class="st1" d="M896.8,121.3c0,11.6-7,21.9-31.4,21.9c-24.4,0-31.4-10.2-31.4-21.9V66.2c0-11.6,7-21.9,31.4-21.9
		c24.4,0,31.4,10.2,31.4,21.9v7c0,2-0.7,2.8-2.6,2.8h-8.2c-2,0-2.7-0.9-2.7-2.8v-4.7c0-7.7-5-12.4-17.8-12.4S848,60.8,848,68.4V119
		c0,7.7,4.8,12.4,17.6,12.4s17.8-4.7,17.8-12.4v-6.7c0-1.8,0.7-2.7,2.7-2.7h8.2c1.8,0,2.6,0.9,2.6,2.7V121.3z"/>
	<path class="st1" d="M913.5,66.2c0-11.6,8-21.9,32.2-21.9c24.4,0,32.4,10.2,32.4,21.9v55.1c0,11.6-8,21.9-32.4,21.9
		c-24.3,0-32.2-10.2-32.2-21.9V66.2z M964.2,68.4c0-7.7-5.7-12.4-18.5-12.4c-12.6,0-18.3,4.7-18.3,12.4V119
		c0,7.7,5.7,12.4,18.3,12.4c12.8,0,18.5-4.7,18.5-12.4V68.4z"/>
	<path class="st1" d="M1080.9,139.3c0,1.8-0.7,2.7-2.6,2.7h-8.4c-1.8,0-2.6-0.9-2.6-2.7V74.1c-0.3,0.7-2.1,7.2-3.4,10.5l-16.5,39.9
		c-0.7,1.8-1.8,2.8-3.5,2.8h-7.4c-1.8,0-2.7-1.1-3.4-2.8l-17.6-41.6c-1.4-3.1-2.6-8.1-2.7-8.5v64.9c0,1.8-0.7,2.7-2.6,2.7h-8
		c-1.8,0-2.6-0.9-2.6-2.7V48.1c0-1.8,0.7-2.7,2.6-2.7h8c1.3,0,2,0.6,2.4,1.6l24.6,57.1c1,2.4,2.8,8,3,8.5c0.1-0.6,2.1-6,3.1-8.4
		l24.1-57.5c0.4-1,1.1-1.3,2.4-1.3h8.4c1.8,0,2.6,0.9,2.6,2.7V139.3z"/>
	<path class="st1" d="M1185.1,139.3c0,1.8-0.7,2.7-2.6,2.7h-8.4c-1.8,0-2.6-0.9-2.6-2.7V74.1c-0.3,0.7-2.1,7.2-3.4,10.5l-16.5,39.9
		c-0.7,1.8-1.8,2.8-3.5,2.8h-7.4c-1.8,0-2.7-1.1-3.4-2.8l-17.6-41.6c-1.4-3.1-2.6-8.1-2.7-8.5v64.9c0,1.8-0.7,2.7-2.6,2.7h-8
		c-1.8,0-2.6-0.9-2.6-2.7V48.1c0-1.8,0.7-2.7,2.6-2.7h8c1.3,0,2,0.6,2.4,1.6l24.6,57.1c1,2.4,2.8,8,3,8.5c0.1-0.6,2.1-6,3.1-8.4
		l24.1-57.5c0.4-1,1.1-1.3,2.4-1.3h8.4c1.8,0,2.6,0.9,2.6,2.7V139.3z"/>
	<path class="st1" d="M1239.2,45.4c1.8,0,2.8,0.9,3.4,2.7l27.5,91.2c0.6,1.7-0.1,2.7-2.1,2.7h-8.9c-1.8,0-2.7-1-3.1-2.7l-6.7-22h-30
		l-6.5,22c-0.4,1.7-1.3,2.7-3.1,2.7h-8.2c-1.8,0-2.6-1-2-2.7l27.5-91.2c0.6-1.8,1.6-2.7,3.4-2.7H1239.2z M1238.3,80.4
		c-1.7-5.3-3.7-19.2-3.8-20.7c-0.3,1.3-2.1,14.3-4,20.4l-8.1,26.1h23.9L1238.3,80.4z"/>
	<path class="st1" d="M1349.1,139.3c0,1.8-0.6,2.7-2.6,2.7h-7.8c-1.4,0-2-0.4-2.6-1.3l-33.4-58.5c-3.1-5.3-4.8-9.7-5.1-10.2v67.3
		c0,1.8-0.7,2.7-2.6,2.7h-8c-1.8,0-2.6-0.9-2.6-2.7V48.1c0-1.8,0.7-2.7,2.6-2.7h8c1.1,0,1.8,0.4,2.3,1.1l34.2,59.8
		c2,3.4,4.4,9.1,4.4,9.1V48.1c0-1.8,0.9-2.7,2.7-2.7h7.8c2,0,2.6,0.9,2.6,2.7V139.3z"/>
	<path class="st1" d="M1374.7,142c-1.7,0-2.3-1-2.3-2.8V48.3c0-2,0.7-2.8,2.6-2.8h29.7c24.3,0,32.4,10.2,32.4,21.9v52.8
		c0,11.6-8.1,21.9-32.4,21.9H1374.7z M1386.2,57.2v73h18.5c12.8,0,18.5-4.7,18.5-12.4V69.6c0-7.7-5.7-12.4-18.5-12.4H1386.2z"/>
	<path class="st1" d="M1461.3,142c-1.8,0-2.6-0.9-2.6-2.8V48.3c0-2,0.7-2.8,2.6-2.8h48.6c1.8,0,2.7,0.7,2.7,2.7v6.4
		c0,2-0.9,2.7-2.7,2.7h-37.3v28.7h34.8c2,0,2.8,0.7,2.8,2.7v6.1c0,1.8-0.9,2.7-2.8,2.7h-34.8v32.8h38.9c1.8,0,2.7,0.6,2.7,2.6v6.5
		c0,2-0.9,2.7-2.7,2.7H1461.3z"/>
	<path class="st1" d="M1546.2,103.8v35.4c0,2-0.6,2.8-2.6,2.8h-8.7c-1.8,0-2.6-0.9-2.6-2.8V48.3c0-2,0.7-2.8,2.6-2.8h28.8
		c24.4,0,32.2,10.2,32.2,21.9v14.8c0,8.7-4.4,16.5-16.6,19.9l17,37.2c0.7,1.7-0.6,2.8-2.6,2.8h-8.5c-2,0-2.3-1.1-3.1-2.8l-16-35.4
		h-2.4H1546.2z M1546.2,57.2V92h17.6c12.8,0,18.5-4.5,18.5-12.4V69.6c0-7.7-5.7-12.4-18.5-12.4H1546.2z"/>
</g>
</svg>
