<?xml version="1.0" encoding="UTF-8" standalone="no"?>
<svg
   xmlns:dc="http://purl.org/dc/elements/1.1/"
   xmlns:cc="http://creativecommons.org/ns#"
   xmlns:rdf="http://www.w3.org/1999/02/22-rdf-syntax-ns#"
   xmlns:svg="http://www.w3.org/2000/svg"
   xmlns="http://www.w3.org/2000/svg"
   xmlns:sodipodi="http://sodipodi.sourceforge.net/DTD/sodipodi-0.dtd"
   xmlns:inkscape="http://www.inkscape.org/namespaces/inkscape"
   id="Layer_1"
   data-name="Layer 1"
   viewBox="0 0 403.24 74.32"
   version="1.1"
   sodipodi:docname="EmboticsvCommanderIcon_Logo_CMYK.svg"
   inkscape:version="0.92.3 (2405546, 2018-03-11)">
  <metadata
     id="metadata49">
    <rdf:RDF>
      <cc:Work
         rdf:about="">
        <dc:format>image/svg+xml</dc:format>
        <dc:type
           rdf:resource="http://purl.org/dc/dcmitype/StillImage" />
        <dc:title>vCommander_Logo_CMYK</dc:title>
      </cc:Work>
    </rdf:RDF>
  </metadata>
  <defs
     id="defs47">
    <pattern
       y="0"
       x="0"
       height="6"
       width="6"
       patternUnits="userSpaceOnUse"
       id="EMFhbasepattern" />
  </defs>
  <sodipodi:namedview
     pagecolor="#ffffff"
     bordercolor="#666666"
     borderopacity="1"
     objecttolerance="10"
     gridtolerance="10"
     guidetolerance="10"
     inkscape:pageopacity="0"
     inkscape:pageshadow="2"
     inkscape:window-width="1920"
     inkscape:window-height="1018"
     id="namedview45"
     showgrid="false"
     inkscape:zoom="4.377046"
     inkscape:cx="201.62"
     inkscape:cy="37.16"
     inkscape:window-x="-8"
     inkscape:window-y="-8"
     inkscape:window-maximized="1"
     inkscape:current-layer="Layer_1" />
  <title
     id="title2">vCommander_Logo_CMYK</title>
  <polygon
     points="23.18 43.75 15.51 67.5 7.9 43.75 0 43.75 11.05 73.74 19.35 73.74 30.39 43.75 23.18 43.75"
     style="fill:#f26729"
     id="polygon22" />
  <path
     d="M591.67,312.25a3.17,3.17,0,0,0-.6-.06h-.94a7,7,0,0,0-2.49.49,10.9,10.9,0,0,0-2.55,1.4,14.47,14.47,0,0,0-2.35,2.15,13.61,13.61,0,0,0-1.89,2.78v-6.41h-7v30h7.67V324.44a7.87,7.87,0,0,1,3.95-3.86,15.12,15.12,0,0,1,6.24-1.35Z"
     transform="translate(-200.33 -268.84)"
     style="fill:#243746"
     id="path24" />
  <path
     d="M565.75,321.64a14.36,14.36,0,0,0-3.09-4.92,15.07,15.07,0,0,0-4.92-3.38,16.26,16.26,0,0,0-6.55-1.26,16.67,16.67,0,0,0-6.61,1.26,15,15,0,0,0-5,3.41,14.74,14.74,0,0,0-3.15,5,16.71,16.71,0,0,0-1.09,6,15.79,15.79,0,0,0,1.12,5.9,14.72,14.72,0,0,0,8.16,8.27,16.64,16.64,0,0,0,6.53,1.23,16.41,16.41,0,0,0,8.67-2.2,13.38,13.38,0,0,0,5.29-5.64l-6.58-1.83a5.9,5.9,0,0,1-2.78,2.95,8.84,8.84,0,0,1-4.32,1.12,8.08,8.08,0,0,1-2.86-.52,7.71,7.71,0,0,1-4.24-3.84,8.9,8.9,0,0,1-.86-3.15h23.18a5.82,5.82,0,0,0,.14-1.14q0-.69,0-1.43A16.39,16.39,0,0,0,565.75,321.64Zm-22.41,3.43a8.27,8.27,0,0,1,.77-3,7.86,7.86,0,0,1,1.69-2.35,7.91,7.91,0,0,1,10.62,0,8,8,0,0,1,2.49,5.41Z"
     transform="translate(-200.33 -268.84)"
     style="fill:#243746"
     id="path26" />
  <path
     d="M528.1,335.49a2.84,2.84,0,0,1-.4-1.72v-33H520v17.06a11.61,11.61,0,0,0-4.15-4.18,11.38,11.38,0,0,0-6-1.6,12.09,12.09,0,0,0-5.38,1.2,12.81,12.81,0,0,0-4.24,3.32,15.92,15.92,0,0,0-2.78,4.92,17.91,17.91,0,0,0-1,6.07,17.27,17.27,0,0,0,1.06,6.1,15.5,15.5,0,0,0,2.95,5,13.54,13.54,0,0,0,10.25,4.52,12.77,12.77,0,0,0,5.92-1.46,10.88,10.88,0,0,0,4.49-4.32l.17,1.89a3.78,3.78,0,0,0,1.49,2.69,5.32,5.32,0,0,0,3.38,1,17.49,17.49,0,0,0,3.26-.4v-6.53A1.78,1.78,0,0,1,528.1,335.49ZM520,331.59a6.66,6.66,0,0,1-1.17,2,9.27,9.27,0,0,1-1.75,1.6,7.87,7.87,0,0,1-2.12,1.06,7.2,7.2,0,0,1-2.23.37,8,8,0,0,1-3.35-.69,7.82,7.82,0,0,1-2.6-1.89,9.09,9.09,0,0,1-1.72-2.8,9.47,9.47,0,0,1-.63-3.49,10.46,10.46,0,0,1,.57-3.43,9.77,9.77,0,0,1,1.6-2.95,7.54,7.54,0,0,1,2.49-2,6.89,6.89,0,0,1,3.18-.74,6.34,6.34,0,0,1,2.32.46,9.9,9.9,0,0,1,2.23,1.23,9.53,9.53,0,0,1,1.89,1.83,8.39,8.39,0,0,1,1.29,2.32Z"
     transform="translate(-200.33 -268.84)"
     style="fill:#243746"
     id="path28" />
  <path
     d="M489.28,323.87a24.77,24.77,0,0,0-.37-4.29,11.25,11.25,0,0,0-1.35-3.78,7.44,7.44,0,0,0-2.75-2.69,9,9,0,0,0-4.58-1,15.44,15.44,0,0,0-7.1,1.6,11.36,11.36,0,0,0-4.81,4.46v-5.55h-6.93v30h7.67V325.07a7.81,7.81,0,0,1,1.26-2.52,10.48,10.48,0,0,1,1.92-2,8.71,8.71,0,0,1,2.26-1.29,6.57,6.57,0,0,1,2.35-.46,4.14,4.14,0,0,1,3.49,1.66q1.26,1.66,1.26,5.27v16.83h7.67Z"
     transform="translate(-200.33 -268.84)"
     style="fill:#243746"
     id="path30" />
  <path
     d="M452.38,335.49a2.7,2.7,0,0,1-.43-1.72v-9.33q0-6-3.58-9.19t-10-3.18a22.14,22.14,0,0,0-12.48,3.84l2.35,4.87a21.8,21.8,0,0,1,4.69-2.52,13.26,13.26,0,0,1,4.69-.86,7,7,0,0,1,5,1.6,6,6,0,0,1,1.69,4.58v1.72a16,16,0,0,0-3.41-1A22.21,22.21,0,0,0,437,324a17.6,17.6,0,0,0-5.15.72,13,13,0,0,0-4,2,9,9,0,0,0-2.63,3.06,8.32,8.32,0,0,0-.94,3.92,9.1,9.1,0,0,0,.77,3.78,9.33,9.33,0,0,0,2.15,3,9.77,9.77,0,0,0,3.26,2,11.37,11.37,0,0,0,4.06.72,14,14,0,0,0,6.12-1.37,13.28,13.28,0,0,0,4.87-4l.17,1.66a4.18,4.18,0,0,0,1.46,2.58,5.11,5.11,0,0,0,3.35,1,17.18,17.18,0,0,0,3.38-.4v-6.53A1.88,1.88,0,0,1,452.38,335.49Zm-8.1-2.63A2.76,2.76,0,0,1,443,335a6.7,6.7,0,0,1-2.72,1.83,10,10,0,0,1-3.69.69,5.4,5.4,0,0,1-3.66-1.29,4.09,4.09,0,0,1-1.49-3.23,4,4,0,0,1,1.89-3.41,8.19,8.19,0,0,1,4.87-1.35,16.13,16.13,0,0,1,3.09.31,18.82,18.82,0,0,1,3,.83Z"
     transform="translate(-200.33 -268.84)"
     style="fill:#243746"
     id="path32" />
  <path
     d="M417.3,323.87a24.76,24.76,0,0,0-.37-4.29,11.28,11.28,0,0,0-1.35-3.78,7.46,7.46,0,0,0-2.75-2.69,8.91,8.91,0,0,0-4.52-1,12.51,12.51,0,0,0-6.41,1.63,13,13,0,0,0-4.64,4.72,8.19,8.19,0,0,0-2.63-4.52,8.5,8.5,0,0,0-5.84-1.83,13.59,13.59,0,0,0-6.61,1.57,11.46,11.46,0,0,0-4.55,4.49v-5.55H370.7v30h7.67V325.07a9.34,9.34,0,0,1,2.89-4.52,6.53,6.53,0,0,1,4.26-1.72,4,4,0,0,1,3.41,1.66q1.23,1.66,1.23,5.27v16.83h7.67V325.13a9.6,9.6,0,0,1,2.86-4.55,6.43,6.43,0,0,1,4.29-1.75,4,4,0,0,1,3.41,1.66q1.23,1.66,1.23,5.27v16.83h7.67Z"
     transform="translate(-200.33 -268.84)"
     style="fill:#243746"
     id="path34" />
  <path
     d="M361.8,323.87a24.76,24.76,0,0,0-.37-4.29,11.28,11.28,0,0,0-1.35-3.78,7.46,7.46,0,0,0-2.75-2.69,8.91,8.91,0,0,0-4.52-1,12.51,12.51,0,0,0-6.41,1.63,13,13,0,0,0-4.64,4.72,8.19,8.19,0,0,0-2.63-4.52,8.5,8.5,0,0,0-5.84-1.83,13.59,13.59,0,0,0-6.61,1.57,11.46,11.46,0,0,0-4.55,4.49v-5.55H315.2v30h7.67V325.07a9.34,9.34,0,0,1,2.89-4.52,6.53,6.53,0,0,1,4.26-1.72,4,4,0,0,1,3.41,1.66q1.23,1.66,1.23,5.27v16.83h7.67V325.13a9.6,9.6,0,0,1,2.86-4.55,6.43,6.43,0,0,1,4.29-1.75,4,4,0,0,1,3.41,1.66q1.23,1.66,1.23,5.27v16.83h7.67Z"
     transform="translate(-200.33 -268.84)"
     style="fill:#243746"
     id="path36" />
  <path
     d="M267,329.88a12.77,12.77,0,1,1-.09-15.31l6.48-4.42a20.61,20.61,0,1,0,.45,23.68Z"
     transform="translate(-200.33 -268.84)"
     style="fill:#243746"
     id="path38" />
  <path
     d="M293.21,312.08a15.54,15.54,0,1,0,15.54,15.54A15.56,15.56,0,0,0,293.21,312.08Zm0,23.78a8.24,8.24,0,1,1,8.24-8.24A8.25,8.25,0,0,1,293.21,335.86Z"
     transform="translate(-200.33 -268.84)"
     style="fill:#243746"
     id="path40" />
  <path
     d="M599,309.46a4.81,4.81,0,0,1-1.8-.33,4.37,4.37,0,0,1-1.43-.91,4.09,4.09,0,0,1-.94-1.37,4.58,4.58,0,0,1,0-3.44,4,4,0,0,1,.94-1.37,4.43,4.43,0,0,1,1.43-.91,5.09,5.09,0,0,1,3.61,0,4.49,4.49,0,0,1,1.45.91,4.08,4.08,0,0,1,1,1.37,4.51,4.51,0,0,1,0,3.44,4.14,4.14,0,0,1-1,1.37,4.43,4.43,0,0,1-1.45.91A4.86,4.86,0,0,1,599,309.46Zm0-.59a4.16,4.16,0,0,0,1.52-.28,3.78,3.78,0,0,0,1.23-.77,3.55,3.55,0,0,0,.82-1.18,3.73,3.73,0,0,0,.3-1.51,3.69,3.69,0,0,0-1.1-2.66,3.75,3.75,0,0,0-1.22-.79,4.07,4.07,0,0,0-1.55-.29,4,4,0,0,0-1.54.29,3.7,3.7,0,0,0-1.21.79,3.64,3.64,0,0,0-.8,1.18,3.7,3.7,0,0,0-.29,1.46,3.77,3.77,0,0,0,.29,1.48,3.7,3.7,0,0,0,.8,1.19,3.65,3.65,0,0,0,1.21.8A4,4,0,0,0,599,308.88Zm-1.94-6.41h2.34a1.48,1.48,0,0,1,.67.16,1.75,1.75,0,0,1,.53.41,2,2,0,0,1,.35.56,1.69,1.69,0,0,1,.13.64,1.74,1.74,0,0,1-.26.92,1.4,1.4,0,0,1-.7.6l1.24,2h-1.28L599,306h-.77v1.78h-1.14Zm2.24,2.52a.6.6,0,0,0,.47-.2.82.82,0,0,0,.17-.56.75.75,0,0,0-.2-.57.67.67,0,0,0-.47-.19h-1.08V305Z"
     transform="translate(-200.33 -268.84)"
     style="fill:#263746"
     id="path42" />
  <polygon
     transform="matrix(0.52477804,0,0,0.52477804,-13.391533,-4.6760685)"
     points="121.67,31.19 121.67,39.84 136.78,39.84 136.78,45.49 121.67,45.49 121.67,54.84 139.62,54.84 139.62,60.96 114.7,60.96 114.7,25.08 139.16,25.08 139.16,31.19 "
     style="fill:#243746"
     id="polygon6-4" />
  <polygon
     transform="matrix(0.52477804,0,0,0.52477804,-13.391533,-4.6760685)"
     points="155.99,60.96 149.01,60.96 149.01,25.08 156.49,25.08 167.1,45.49 177.82,25.08 185.25,25.08 185.25,60.96 178.27,60.96 178.27,37.21 169.03,54.9 165.24,54.9 155.99,37.21 "
     style="fill:#243746"
     id="polygon8" />
  <path
     inkscape:connector-curvature="0"
     d="m 101.21999,21.767495 a 2.7445892,2.7445892 0 0 0 -0.17318,-0.965591 2.7078547,2.7078547 0 0 0 -0.4618,-0.808159 2.1620855,2.1620855 0 0 0 -0.68746,-0.524778 1.9259354,1.9259354 0 0 0 -0.87638,-0.199415 h -5.620372 v 4.959153 H 98.8375 a 2.3982356,2.3982356 0 0 0 0.93935,-0.183673 2.2565456,2.2565456 0 0 0 0.75568,-0.524778 2.461209,2.461209 0 0 0 0.52478,-0.781919 2.4926957,2.4926957 0 0 0 0.18367,-0.955097 M 93.416542,11.623537 v 4.723001 h 4.880438 a 2.1725811,2.1725811 0 0 0 1.57433,-0.634981 2.3405101,2.3405101 0 0 0 0.65073,-1.752758 2.4192268,2.4192268 0 0 0 -0.59825,-1.726519 1.936431,1.936431 0 0 0 -1.46938,-0.634982 z m 11.508378,10.847161 a 4.2716933,4.2716933 0 0 1 -1.78949,3.605225 6.1608942,6.1608942 0 0 1 -1.93643,0.928857 8.3964487,8.3964487 0 0 1 -2.34576,0.320115 H 89.737848 V 8.4853645 H 99.81359 a 3.7259241,3.7259241 0 0 1 1.77899,0.42507 4.4343744,4.4343744 0 0 1 1.35393,1.1020345 5.0536125,5.0536125 0 0 1 0.86064,1.5376 5.2110459,5.2110459 0 0 1 0.30437,1.737014 5.1323292,5.1323292 0 0 1 -0.68746,2.587155 4.1982243,4.1982243 0 0 1 -2.01515,1.789493 4.8384535,4.8384535 0 0 1 2.57666,1.684537 4.9486569,4.9486569 0 0 1 0.93935,3.090943"
     style="fill:#243746;stroke-width:0.52477807"
     id="path10" />
  <polygon
     transform="matrix(0.52477804,0,0,0.52477804,-13.391533,-4.6760685)"
     points="290.06,60.96 283.08,60.96 283.08,31.19 271.61,31.19 271.61,25.08 301.48,25.08 301.48,31.19 290.06,31.19 "
     style="fill:#243746"
     id="polygon12" />
  <rect
     x="149.16896"
     y="8.5116024"
     width="3.6577029"
     height="18.802797"
     style="fill:#243746;stroke-width:0.52477807"
     id="rect14" />
  <path
     inkscape:connector-curvature="0"
     d="m 189.69232,13.418278 a 4.5393301,4.5393301 0 0 0 -0.67696,-0.524779 8.2809975,8.2809975 0 0 0 -1.19125,-0.624485 10.443083,10.443083 0 0 0 -1.52711,-0.524777 6.6751767,6.6751767 0 0 0 -1.66879,-0.209912 3.7469152,3.7469152 0 0 0 -2.25654,0.556265 1.8419709,1.8419709 0 0 0 -0.73994,1.574332 1.6058208,1.6058208 0 0 0 0.27813,0.965592 2.3929879,2.3929879 0 0 0 0.80816,0.676963 6.7906279,6.7906279 0 0 0 1.33818,0.524779 q 0.80816,0.241397 1.86821,0.524778 1.38017,0.372592 2.50319,0.797662 a 6.7748845,6.7748845 0 0 1 1.9102,1.049556 4.3871444,4.3871444 0 0 1 1.20699,1.527104 5.0641081,5.0641081 0 0 1 0.42507,2.188325 5.4524438,5.4524438 0 0 1 -0.57201,2.587156 4.8384535,4.8384535 0 0 1 -1.52711,1.737015 6.5334866,6.5334866 0 0 1 -2.22506,0.97084 11.398179,11.398179 0 0 1 -2.65012,0.304371 14.169007,14.169007 0 0 1 -4.19823,-0.634982 12.914788,12.914788 0 0 1 -3.71543,-1.805236 l 1.61632,-3.148669 a 5.0588603,5.0588603 0 0 0 0.86063,0.624487 13.119451,13.119451 0 0 0 1.46938,0.766176 11.41917,11.41917 0 0 0 1.88396,0.650724 8.4961565,8.4961565 0 0 0 2.09911,0.267637 q 3.02272,0 3.02272,-1.936431 a 1.6320597,1.6320597 0 0 0 -0.34635,-1.049556 2.9177659,2.9177659 0 0 0 -0.98134,-0.739937 9.3095625,9.3095625 0 0 0 -1.5376,-0.582504 q -0.90262,-0.267637 -2.01515,-0.556265 a 17.113012,17.113012 0 0 1 -2.34575,-0.808158 6.3655576,6.3655576 0 0 1 -1.6583,-1.018069 3.7311719,3.7311719 0 0 1 -0.99183,-1.380167 4.8699402,4.8699402 0 0 1 -0.33061,-1.883953 5.8460274,5.8460274 0 0 1 0.52478,-2.545171 5.1638159,5.1638159 0 0 1 1.46937,-1.8577145 6.6646811,6.6646811 0 0 1 2.18833,-1.128273 9.0524212,9.0524212 0 0 1 2.68161,-0.383088 10.411596,10.411596 0 0 1 3.67345,0.624486 13.71245,13.71245 0 0 1 2.91777,1.4693785 z"
     style="fill:#243746;stroke-width:0.52477807"
     id="path16-8" />
  <path
     inkscape:connector-curvature="0"
     d="m 171.0522,21.389655 a 5.8722663,5.8722663 0 1 1 -0.042,-7.042521 l 2.98074,-2.030889 a 9.4722436,9.4722436 0 1 0 0.20466,10.883895 z"
     style="fill:#243746;stroke-width:0.52477807"
     id="path18-7" />
  <path
     inkscape:connector-curvature="0"
     d="m 117.71901,8.4118955 a 9.487987,9.487987 0 1 0 9.48799,9.4879855 9.487987,9.487987 0 0 0 -9.48799,-9.4879855 m 0,3.5107645 v 0 a 5.9772219,5.9772219 0 1 1 -5.97722,5.977221 5.9824697,5.9824697 0 0 1 5.97722,-5.977221"
     style="fill:#243746;stroke-width:0.52477807"
     id="path20-9" />
  <path
     inkscape:connector-curvature="0"
     d="m 196.44096,12.898747 a 2.5241824,2.5241824 0 0 1 -0.9446,-0.173176 2.29328,2.29328 0 0 1 -0.75043,-0.477548 2.1463422,2.1463422 0 0 1 -0.49329,-0.718945 2.4034834,2.4034834 0 0 1 0,-1.8052375 2.0991122,2.0991122 0 0 1 0.49329,-0.718946 2.3247667,2.3247667 0 0 1 0.75043,-0.477548 2.6711202,2.6711202 0 0 1 1.89445,0 2.3562534,2.3562534 0 0 1 0.76093,0.477548 2.1410944,2.1410944 0 0 1 0.52477,0.718946 2.366749,2.366749 0 0 1 0,1.8052375 2.1725811,2.1725811 0 0 1 -0.52477,0.718945 2.3247667,2.3247667 0 0 1 -0.76093,0.477548 2.5504213,2.5504213 0 0 1 -0.94985,0.173176 z m 0,-0.309619 a 2.1830767,2.1830767 0 0 0 0.79766,-0.146938 1.983661,1.983661 0 0 0 0.64548,-0.404079 1.862962,1.862962 0 0 0 0.43032,-0.619237 1.9574221,1.9574221 0 0 0 0.15743,-0.792415 1.936431,1.936431 0 0 0 -0.57726,-1.3959095 1.9679177,1.9679177 0 0 0 -0.64022,-0.414575 2.1358466,2.1358466 0 0 0 -0.81341,-0.152185 2.0991122,2.0991122 0 0 0 -0.80815,0.152185 1.9416788,1.9416788 0 0 0 -0.63499,0.414575 1.9101921,1.9101921 0 0 0 -0.41982,0.619238 1.9416788,1.9416788 0 0 0 -0.15218,0.7661765 1.9784132,1.9784132 0 0 0 0.15218,0.776671 1.9416788,1.9416788 0 0 0 0.41982,0.624485 1.9154399,1.9154399 0 0 0 0.63499,0.419823 2.0991122,2.0991122 0 0 0 0.80815,0.152185 z m -1.01807,-3.3638265 h 1.22798 a 0.7766715,0.7766715 0 0 1 0.3516,0.08396 0.91836157,0.91836157 0 0 1 0.27813,0.215159 1.0495561,1.0495561 0 0 1 0.18368,0.293876 0.88687489,0.88687489 0 0 1 0.0682,0.3358585 0.91311379,0.91311379 0 0 1 -0.13644,0.482796 0.73468926,0.73468926 0 0 1 -0.36735,0.314866 l 0.65073,1.049555 h -0.67172 l -0.57726,-0.934103 h -0.40407 v 0.934103 h -0.59825 z m 1.1755,1.3224415 a 0.31486682,0.31486682 0 0 0 0.24665,-0.104956 0.43031799,0.43031799 0 0 0 0.0892,-0.293876 0.39358353,0.39358353 0 0 0 -0.10495,-0.2991235 0.35160129,0.35160129 0 0 0 -0.24665,-0.09971 h -0.56676 v 0.7924155 z"
     style="fill:#243746;stroke-width:0.52477807"
     id="path22" />
  <path
     id="path3781"
     d="m 16.271319,11.548503 c 4.177117,0 7.718585,3.087434 8.323964,7.204013 H 7.9170852 c 0.605379,-4.116579 4.1468488,-7.204013 8.3239648,-7.204013 m 16.133356,9.776875 c 0.03027,-0.423765 0.06054,-0.8778 0.06054,-1.331834 0,-8.959613 -7.264551,-16.1938946 -16.193894,-16.1938946 -8.9596128,0 -16.19389443,7.2342816 -16.19389443,16.1938946 0,0.454034 0.030269,0.908069 0.060538,1.331834 H 5.3442262 c 0.544842,4.479806 3.753352,8.202888 8.1423508,9.32284 4.358731,1.15022 8.989882,-0.514573 11.683819,-4.146847 h 3.026897 C 25.563893,31.314136 20.297094,34.06861 14.84868,33.523769 9.4002672,32.948659 4.7993852,29.165039 3.2253988,23.928509 H 0.56172947 C 2.3475987,31.132522 8.8251562,36.187438 16.241052,36.187438 c 7.446164,0 13.893453,-5.054916 15.70959,-12.258929 h -8.202889 v 0.03027 c -1.725331,3.208509 -5.2668,4.964109 -8.838537,4.358731 C 11.337478,27.71213 8.5224642,24.897116 7.9776232,21.325379 H 27.198414 C 27.924869,15.271585 23.596407,9.7929044 17.542616,9.0967177 11.488823,8.3702627 6.0101412,12.698724 5.3139542,18.752516 H 2.7108245 C 3.4675488,11.578772 9.6726852,6.2211668 16.876698,6.5541251 c 7.204013,0.3329582 12.894578,6.2354059 13.015654,13.4394189 0,0.454034 -0.03027,0.908069 -0.09081,1.331834 z"
     style="fill:#f26729;fill-opacity:1;fill-rule:nonzero;stroke:none;stroke-width:0.37836483"
     inkscape:connector-curvature="0" />
</svg>
