<svg id="Layer_1" data-name="Layer 1" xmlns="http://www.w3.org/2000/svg" viewBox="0 0 112.21 32.57"><defs><style>.cls-1{fill:#243645;}.cls-2{fill:#ff671d;}.cls-3{fill:#243746;}</style></defs><title>vcommander-logo-login</title><path class="cls-1" d="M99.27,26.71H99a1.35,1.35,0,0,0-.47.09,1.83,1.83,0,0,0-.49.27,2.38,2.38,0,0,0-.44.4,2.75,2.75,0,0,0-.36.53V26.77H95.88v5.69h1.46V29a1.48,1.48,0,0,1,.75-.73A3,3,0,0,1,99.27,28Z"/><path class="cls-1" d="M94.35,28.49a2.57,2.57,0,0,0-.58-.93,2.71,2.71,0,0,0-.94-.64,3,3,0,0,0-1.24-.24,3.13,3.13,0,0,0-1.25.24,2.66,2.66,0,0,0-1,.64,2.84,2.84,0,0,0-.6,1,3.08,3.08,0,0,0-.21,1.14,2.83,2.83,0,0,0,.22,1.12,2.76,2.76,0,0,0,.6.93,2.85,2.85,0,0,0,.94.64,3.26,3.26,0,0,0,1.24.23,3.11,3.11,0,0,0,1.65-.42,2.48,2.48,0,0,0,1-1.06L93,30.74a1.1,1.1,0,0,1-.53.56,1.67,1.67,0,0,1-.82.21,1.47,1.47,0,0,1-.54-.1,1.5,1.5,0,0,1-.47-.28,1.6,1.6,0,0,1-.49-1h4.39a.69.69,0,0,0,0-.22c0-.09,0-.18,0-.27A3,3,0,0,0,94.35,28.49Zm-4.25.65a1.71,1.71,0,0,1,.15-.57,1.36,1.36,0,0,1,.32-.45,1.51,1.51,0,0,1,.45-.29,1.52,1.52,0,0,1,1.56.29,1.49,1.49,0,0,1,.48,1Z"/><path class="cls-1" d="M87.21,31.12a.58.58,0,0,1-.07-.33V24.54H85.68v3.23a2.21,2.21,0,0,0-.79-.79,2.15,2.15,0,0,0-1.13-.3,2.31,2.31,0,0,0-1,.22,2.77,2.77,0,0,0-.81.63,3,3,0,0,0-.52.94,3.3,3.3,0,0,0-.19,1.15,3.41,3.41,0,0,0,.2,1.16,2.82,2.82,0,0,0,.56.93,2.59,2.59,0,0,0,1.94.86,2.51,2.51,0,0,0,1.13-.27,2.16,2.16,0,0,0,.85-.82l0,.35a.73.73,0,0,0,.28.51,1,1,0,0,0,.64.2,3.38,3.38,0,0,0,.62-.08V31.23A.37.37,0,0,1,87.21,31.12Zm-1.53-.74a1.22,1.22,0,0,1-.22.38,1.55,1.55,0,0,1-.33.3,1.36,1.36,0,0,1-.4.2,1.33,1.33,0,0,1-.43.07,1.55,1.55,0,0,1-1.13-.48,1.93,1.93,0,0,1-.32-.54,1.76,1.76,0,0,1-.12-.66,1.81,1.81,0,0,1,.11-.65,1.77,1.77,0,0,1,.3-.56,1.43,1.43,0,0,1,.47-.38,1.28,1.28,0,0,1,.61-.15,1.11,1.11,0,0,1,.43.09,2.55,2.55,0,0,1,.43.23,2.38,2.38,0,0,1,.36.35,1.88,1.88,0,0,1,.24.44Z"/><path class="cls-1" d="M79.85,28.91a4.43,4.43,0,0,0-.07-.81,2.06,2.06,0,0,0-.26-.72,1.34,1.34,0,0,0-.52-.51,1.7,1.7,0,0,0-.87-.19,2.93,2.93,0,0,0-1.34.3,2.09,2.09,0,0,0-.91.85V26.77H74.56v5.69H76V29.14a1.54,1.54,0,0,1,.24-.48,1.58,1.58,0,0,1,.36-.37,1.56,1.56,0,0,1,.43-.25,1.41,1.41,0,0,1,.44-.08.79.79,0,0,1,.67.31,1.76,1.76,0,0,1,.23,1v3.19h1.46Z"/><path class="cls-1" d="M72.85,31.12a.5.5,0,0,1-.08-.33V29a2.21,2.21,0,0,0-.68-1.74,2.79,2.79,0,0,0-1.91-.6,4.22,4.22,0,0,0-2.36.72l.44.93a4.35,4.35,0,0,1,.89-.48,2.5,2.5,0,0,1,.89-.16A1.34,1.34,0,0,1,71,28a1.11,1.11,0,0,1,.32.87v.32a3.47,3.47,0,0,0-.64-.18,4.65,4.65,0,0,0-.75-.06,3.3,3.3,0,0,0-1,.13,2.41,2.41,0,0,0-.77.38,1.65,1.65,0,0,0-.5.58,1.53,1.53,0,0,0-.18.74,1.72,1.72,0,0,0,.15.72,2,2,0,0,0,.4.57,2.07,2.07,0,0,0,.62.38,2.19,2.19,0,0,0,.77.13,2.6,2.6,0,0,0,1.17-.26,2.4,2.4,0,0,0,.92-.76l0,.32a.84.84,0,0,0,.28.49,1,1,0,0,0,.63.18,3.19,3.19,0,0,0,.64-.08V31.23A.37.37,0,0,1,72.85,31.12Zm-1.54-.5a.52.52,0,0,1-.24.41,1.22,1.22,0,0,1-.51.35,1.85,1.85,0,0,1-.7.13,1,1,0,0,1-.7-.25.75.75,0,0,1-.28-.61.77.77,0,0,1,.36-.65,1.56,1.56,0,0,1,.92-.25,3.33,3.33,0,0,1,1.15.22Z"/><path class="cls-1" d="M66.19,28.91a4.43,4.43,0,0,0-.07-.81,2,2,0,0,0-.25-.72,1.49,1.49,0,0,0-.52-.51,1.71,1.71,0,0,0-.86-.19,2.36,2.36,0,0,0-1.22.31,2.5,2.5,0,0,0-.88.89,1.58,1.58,0,0,0-.5-.86,1.61,1.61,0,0,0-1.1-.34,2.61,2.61,0,0,0-1.26.3,2.13,2.13,0,0,0-.86.85V26.77H57.36v5.69h1.45V29.14a1.8,1.8,0,0,1,.55-.86,1.28,1.28,0,0,1,.81-.32.74.74,0,0,1,.64.31,1.67,1.67,0,0,1,.24,1v3.19H62.5V29.15a1.87,1.87,0,0,1,.54-.86,1.25,1.25,0,0,1,.82-.33.77.77,0,0,1,.65.31,1.76,1.76,0,0,1,.23,1v3.19h1.45Z"/><path class="cls-1" d="M55.67,28.91a4.45,4.45,0,0,0-.08-.81,2,2,0,0,0-.25-.72,1.41,1.41,0,0,0-.52-.51,1.71,1.71,0,0,0-.86-.19,2.36,2.36,0,0,0-1.22.31,2.4,2.4,0,0,0-.87.89,1.48,1.48,0,0,0-1.61-1.2A2.61,2.61,0,0,0,49,27a2.13,2.13,0,0,0-.86.85V26.77H46.83v5.69h1.45V29.14a1.8,1.8,0,0,1,.55-.86,1.28,1.28,0,0,1,.81-.32.77.77,0,0,1,.65.31,1.76,1.76,0,0,1,.23,1v3.19H52V29.15a1.8,1.8,0,0,1,.55-.86,1.2,1.2,0,0,1,.81-.33.76.76,0,0,1,.65.31,1.76,1.76,0,0,1,.23,1v3.19h1.46Z"/><path class="cls-1" d="M37.68,30.05a2.4,2.4,0,0,1-1.94,1,2.43,2.43,0,1,1,1.93-3.89l1.23-.84A3.92,3.92,0,1,0,39,30.8Z"/><path class="cls-1" d="M42.66,26.68a2.95,2.95,0,1,0,2.94,2.94A2.95,2.95,0,0,0,42.66,26.68Zm0,4.51a1.57,1.57,0,1,1,1.56-1.57A1.57,1.57,0,0,1,42.66,31.19Z"/><path class="cls-2" d="M11.87,5.68A6.19,6.19,0,0,1,18,11H5.75a6.2,6.2,0,0,1,6.12-5.29M23.7,12.86c0-.33,0-.66,0-1A11.87,11.87,0,0,0,0,11.87c0,.33,0,.66,0,1H3.85a8.08,8.08,0,0,0,14.54,3.79h2.23a10,10,0,0,1-18.3-1.89h-2a11.87,11.87,0,0,0,23,0h-6l0,0A6.18,6.18,0,0,1,5.77,12.86H19.9a8.22,8.22,0,0,0,.06-1A8.09,8.09,0,0,0,3.84,11H1.94a10,10,0,0,1,19.91.9c0,.33,0,.66-.05,1Z"/><polygon class="cls-3" points="38.74 15.22 38.74 16.91 31.83 16.91 31.83 6.96 38.61 6.96 38.61 8.65 33.76 8.65 33.76 11.05 37.95 11.05 37.95 12.62 33.76 12.62 33.76 15.22 38.74 15.22"/><polygon class="cls-3" points="49.47 16.91 49.47 10.32 46.9 15.23 45.85 15.23 43.28 10.32 43.28 16.91 41.35 16.91 41.35 6.96 43.42 6.96 46.37 12.62 49.34 6.96 51.4 6.96 51.4 16.91 49.47 16.91"/><path class="cls-3" d="M60.6,14a1.52,1.52,0,0,0-.09-.51,1.43,1.43,0,0,0-.25-.43,1.09,1.09,0,0,0-.36-.28,1,1,0,0,0-.46-.11h-3v2.62h2.88a1.16,1.16,0,0,0,.9-.37,1.15,1.15,0,0,0,.26-.41,1.25,1.25,0,0,0,.1-.51M56.46,8.61v2.51H59a1.17,1.17,0,0,0,.84-.33,1.25,1.25,0,0,0,.34-.93A1.27,1.27,0,0,0,59.91,9a1,1,0,0,0-.78-.34Zm6.09,5.74a2.33,2.33,0,0,1-.25,1.11,2.43,2.43,0,0,1-.7.8,3.45,3.45,0,0,1-1,.49,4.53,4.53,0,0,1-1.24.16H54.53V7h5.33a2,2,0,0,1,.94.22,2.26,2.26,0,0,1,.71.59,2.48,2.48,0,0,1,.46.81,2.92,2.92,0,0,1,.16.92,2.62,2.62,0,0,1-.37,1.36,2.19,2.19,0,0,1-1.06,1,2.57,2.57,0,0,1,1.35.9,2.64,2.64,0,0,1,.5,1.64"/><polygon class="cls-3" points="83.65 8.65 80.48 8.65 80.48 16.91 78.55 16.91 78.55 8.65 75.37 8.65 75.37 6.96 83.65 6.96 83.65 8.65"/><rect class="cls-3" x="85.95" y="6.97" width="1.93" height="9.94"/><path class="cls-3" d="M107.38,9.57A1.92,1.92,0,0,0,107,9.3a4.52,4.52,0,0,0-.63-.33,4.7,4.7,0,0,0-.8-.27,3.34,3.34,0,0,0-.89-.11,2,2,0,0,0-1.19.29,1,1,0,0,0-.39.83.93.93,0,0,0,.14.51,1.44,1.44,0,0,0,.43.36,4.57,4.57,0,0,0,.71.28l1,.26a12.93,12.93,0,0,1,1.32.42,3.59,3.59,0,0,1,1,.56,2.37,2.37,0,0,1,.64.81,2.66,2.66,0,0,1,.23,1.16,2.8,2.8,0,0,1-.31,1.37,2.61,2.61,0,0,1-.8.91,3.42,3.42,0,0,1-1.18.52,6.46,6.46,0,0,1-1.4.16,7.67,7.67,0,0,1-2.22-.34,6.73,6.73,0,0,1-2-1l.86-1.67a2.9,2.9,0,0,0,.45.33,7,7,0,0,0,.78.4,6.37,6.37,0,0,0,1,.35,4.73,4.73,0,0,0,1.13.14c1.06,0,1.59-.34,1.59-1a.87.87,0,0,0-.18-.56,1.45,1.45,0,0,0-.52-.39A5.54,5.54,0,0,0,105,13l-1.07-.29a9.84,9.84,0,0,1-1.24-.43,3.07,3.07,0,0,1-.87-.54,2,2,0,0,1-.53-.73,2.5,2.5,0,0,1-.17-1,3,3,0,0,1,.28-1.35,2.65,2.65,0,0,1,.77-1,3.75,3.75,0,0,1,1.16-.6,5,5,0,0,1,1.42-.2,5.47,5.47,0,0,1,1.93.33,7.24,7.24,0,0,1,1.55.78Z"/><path class="cls-3" d="M97.52,13.78a3.1,3.1,0,1,1,0-3.72L99.08,9a5,5,0,1,0,.11,5.75Z"/><path class="cls-3" d="M69.32,6.92a5,5,0,1,0,5,5,5,5,0,0,0-5-5m0,1.86h0a3.16,3.16,0,1,1-3.16,3.16,3.16,3.16,0,0,1,3.16-3.16"/><path class="cls-3" d="M111,9.29a1.35,1.35,0,0,1-.5-.09,1.18,1.18,0,0,1-.4-.25,1.22,1.22,0,0,1-.26-.38,1.32,1.32,0,0,1,0-1,1.12,1.12,0,0,1,.26-.38,1.3,1.3,0,0,1,.9-.34,1.39,1.39,0,0,1,.5.09,1.36,1.36,0,0,1,.4.25,1.21,1.21,0,0,1,.26,1.34,1.22,1.22,0,0,1-.26.38,1.18,1.18,0,0,1-.4.25A1.39,1.39,0,0,1,111,9.29Zm0-.16a1.16,1.16,0,0,0,.42-.08,1,1,0,0,0,.57-1.37,1.19,1.19,0,0,0-.22-.33,1.08,1.08,0,0,0-.34-.21,1,1,0,0,0-.43-.08,1,1,0,0,0-.43.08,1.08,1.08,0,0,0-.34.21,1.46,1.46,0,0,0-.22.33,1.11,1.11,0,0,0-.08.41,1.15,1.15,0,0,0,.08.41,1.46,1.46,0,0,0,.22.33,1.11,1.11,0,0,0,.34.22A1.18,1.18,0,0,0,111,9.13Zm-.54-1.78h.65a.53.53,0,0,1,.18,0,.44.44,0,0,1,.15.12.49.49,0,0,1,.1.15.57.57,0,0,1,0,.18.48.48,0,0,1-.07.26.37.37,0,0,1-.19.16l.34.56h-.36l-.3-.5h-.22v.5h-.31Zm.62.7a.17.17,0,0,0,.13-.05.28.28,0,0,0,0-.32.22.22,0,0,0-.14,0h-.3v.42Z"/></svg>